HIERARCHY
ROOT Hips
{
	OFFSET -0.001795 -0.223333 0.028219
	CHANNELS 6 Xposition Yposition Zposition Zrotation Yrotation Xrotation 
	JOINT LeftUpLeg
	{
		OFFSET 0.069520 -0.091406 -0.006815
		CHANNELS 3 Zrotation Yrotation Xrotation
		JOINT LeftLeg
		{
			OFFSET 0.034277 -0.375199 -0.004496
			CHANNELS 3 Zrotation Yrotation Xrotation
			JOINT LeftFoot
			{
				OFFSET -0.013596 -0.397961 -0.043693
				CHANNELS 3 Zrotation Yrotation Xrotation
				JOINT LeftToe
				{
					OFFSET 0.026358 -0.055791 0.119288
					CHANNELS 3 Zrotation Yrotation Xrotation
					End Site
					{
						OFFSET 0.000000 0.000000 0.000000
					}
				}
			}
		}
	}
	JOINT RightUpLeg
	{
		OFFSET -0.067670 -0.090522 -0.004320
		CHANNELS 3 Zrotation Yrotation Xrotation
		JOINT RightLeg
		{
			OFFSET -0.038290 -0.382569 -0.008850
			CHANNELS 3 Zrotation Yrotation Xrotation
			JOINT RightFoot
			{
				OFFSET 0.015774 -0.398415 -0.042312
				CHANNELS 3 Zrotation Yrotation Xrotation
				JOINT RightToe
				{
					OFFSET -0.025372 -0.048144 0.123348
					CHANNELS 3 Zrotation Yrotation Xrotation
					End Site
					{
						OFFSET 0.000000 0.000000 0.000000
					}
				}
			}
		}
	}
	JOINT Spine
	{
		OFFSET -0.002533 0.108963 -0.026696
		CHANNELS 3 Zrotation Yrotation Xrotation
		JOINT Spine1
		{
			OFFSET 0.005487 0.135180 0.001092
			CHANNELS 3 Zrotation Yrotation Xrotation
			JOINT Spine2
			{
				OFFSET 0.001457 0.052922 0.025425
				CHANNELS 3 Zrotation Yrotation Xrotation
				JOINT Neck
				{
					OFFSET -0.002778 0.213870 -0.042857
					CHANNELS 3 Zrotation Yrotation Xrotation
					JOINT Head
					{
						OFFSET 0.005152 0.064970 0.051349
						CHANNELS 3 Zrotation Yrotation Xrotation
						End Site
						{
							OFFSET 0.000000 0.000000 0.000000
						}
					}
				}
				JOINT LeftShoulder
				{
					OFFSET 0.078845 0.121749 -0.034090
					CHANNELS 3 Zrotation Yrotation Xrotation
					JOINT LeftArm
					{
						OFFSET 0.090977 0.030469 -0.008868
						CHANNELS 3 Zrotation Yrotation Xrotation
						JOINT LeftForeArm
						{
							OFFSET 0.259612 -0.012772 -0.027456
							CHANNELS 3 Zrotation Yrotation Xrotation
							JOINT LeftHand
							{
								OFFSET 0.249234 0.008986 -0.001171
								CHANNELS 3 Zrotation Yrotation Xrotation
								End Site
								{
									OFFSET 0.000000 0.000000 0.000000
								}
							}
						}
					}
				}
				JOINT RightShoulder
				{
					OFFSET -0.081759 0.118833 -0.038615
					CHANNELS 3 Zrotation Yrotation Xrotation
					JOINT RightArm
					{
						OFFSET -0.096012 0.032551 -0.009143
						CHANNELS 3 Zrotation Yrotation Xrotation
						JOINT RightForeArm
						{
							OFFSET -0.253742 -0.013329 -0.021401
							CHANNELS 3 Zrotation Yrotation Xrotation
							JOINT RightHand
							{
								OFFSET -0.255298 0.007772 -0.005559
								CHANNELS 3 Zrotation Yrotation Xrotation
								End Site
								{
									OFFSET 0.000000 0.000000 0.000000
								}
							}
						}
					}
				}
			}
		}
	}
}
MOTION
Frames: 9
Frame Time: 0.050000
0.092240 0.917141 -0.084343 -1.391647 20.653687 2.982524 10.435554 -0.748337 -3.844692 -4.065320 0.152884 5.881580 4.817085 8.464031 -1.665163 0.000000 0.000000 0.000000 -8.540244 -0.102434 -7.912005 1.150268 -0.259538 10.963483 -2.084752 -5.319345 -1.577387 0.000000 0.000000 0.000000 -0.562611 0.027532 -0.872142 4.828804 -2.920940 3.269428 -5.435124 1.123029 4.839102 4.893917 -2.337318 -6.628120 0.000000 0.000000 0.000000 -21.080580 -4.556260 -3.381086 -38.467736 -4.809777 -1.850082 -43.448061 -55.200549 22.568739 0.000000 0.000000 0.000000 19.504837 -1.306038 0.781856 48.968294 2.475436 -4.502971 20.937173 39.935103 10.623522 0.000000 0.000000 0.000000 
0.086997 0.916818 -0.086147 -1.276878 25.590358 2.654172 11.063140 -0.910063 -4.462506 -3.862720 0.072204 5.697353 2.564243 4.138287 -1.086254 0.000000 0.000000 0.000000 -8.581249 -0.278056 -5.627190 1.707204 -0.465062 9.410922 -3.316500 -8.855164 -1.215287 0.000000 0.000000 0.000000 -1.094250 0.016451 -0.574323 5.170464 -3.086025 2.695374 -6.141094 4.775490 5.176234 7.715250 -4.203263 -6.278414 0.000000 0.000000 0.000000 -19.779487 -2.893969 -5.602356 -38.015983 1.736132 -3.464432 -47.697332 -52.326894 22.025068 0.000000 0.000000 0.000000 20.399032 -2.223754 1.903105 48.003341 3.376649 -4.454475 21.610211 39.907195 11.509022 0.000000 0.000000 0.000000 
0.080220 0.917236 -0.087984 -0.796041 29.098160 2.592124 10.637983 -0.956274 -5.065093 -3.372174 -0.005171 5.459085 1.384527 2.069643 -0.545864 0.000000 0.000000 0.000000 -8.622189 -0.415556 -3.646809 2.333847 -0.640173 8.053541 -3.919693 -10.798107 -1.637046 0.000000 0.000000 0.000000 -1.824493 0.008952 -0.597786 5.393122 -3.243952 2.588218 -6.406864 7.138811 5.269821 8.691239 -5.351162 -4.611387 0.000000 0.000000 0.000000 -19.087966 -2.335132 -6.679033 -37.668175 5.748619 -4.513551 -47.282540 -48.077662 19.042569 0.000000 0.000000 0.000000 20.197188 -1.504549 3.312287 48.509008 3.985786 -4.298048 20.185140 40.644569 11.434198 0.000000 0.000000 0.000000 
0.071881 0.916528 -0.089590 -0.782085 32.930673 1.839204 11.036010 -1.070340 -4.945936 -3.382593 -0.019993 4.744520 -0.675411 -1.277409 0.423722 0.000000 0.000000 0.000000 -8.100202 -0.541368 -1.472942 2.970819 -0.830956 6.950509 -4.676681 -13.204925 -1.528339 0.000000 0.000000 0.000000 -2.374385 -0.015169 0.220709 6.342936 -3.790403 2.409952 -7.027914 8.672742 4.887014 8.940337 -5.947071 -3.365494 0.000000 0.000000 0.000000 -17.585088 -1.934667 -7.062883 -38.310124 8.353413 -5.499903 -45.807508 -44.645357 16.237155 0.000000 0.000000 0.000000 20.270816 -1.504295 4.162377 49.686555 5.140661 -3.881084 17.520189 39.168780 10.038112 0.000000 0.000000 0.000000 
0.062720 0.916617 -0.091605 -0.556886 36.226487 1.585726 11.305339 -1.171341 -5.581320 -3.275437 -0.060758 4.663884 -2.008507 -3.186012 1.251235 0.000000 0.000000 0.000000 -7.194015 -0.602106 -0.065654 2.843495 -0.827836 6.140286 -5.014282 -14.708845 -2.028404 0.000000 0.000000 0.000000 -2.774407 -0.031795 0.515977 7.087908 -4.286029 2.461939 -7.739597 10.479241 4.816807 9.768301 -6.930699 -2.580042 0.000000 0.000000 0.000000 -16.721507 -2.513035 -7.275881 -38.960015 8.957094 -5.774735 -41.636214 -41.303640 12.709369 0.000000 0.000000 0.000000 19.497328 -1.019394 5.140108 51.968020 5.970085 -3.377892 14.456022 37.518848 8.491257 0.000000 0.000000 0.000000 
0.053635 0.917004 -0.094006 -0.845682 38.834839 0.746939 12.092100 -1.318170 -5.409758 -3.210662 -0.067112 4.029624 -3.570673 -4.342944 3.153305 0.000000 0.000000 0.000000 -6.046757 -0.626160 0.940818 2.466768 -0.762083 5.655881 -5.097536 -15.207942 -1.879614 0.000000 0.000000 0.000000 -2.438520 -0.050335 1.447197 7.634241 -4.573160 2.183542 -8.241052 11.721449 4.638958 9.551317 -7.222304 -1.555326 0.000000 0.000000 0.000000 -16.142877 -3.468877 -7.229927 -40.481379 9.833685 -6.371632 -38.040529 -39.107362 10.331588 0.000000 0.000000 0.000000 19.467222 -1.127526 5.663490 52.691640 6.947178 -2.870129 12.617961 35.719170 7.339312 0.000000 0.000000 0.000000 
0.045307 0.917575 -0.096971 -0.587261 40.826674 0.677189 12.057993 -1.353165 -6.168242 -3.132006 -0.097512 4.173475 -4.537263 -5.020249 4.282278 0.000000 0.000000 0.000000 -5.730408 -0.652462 1.057406 2.777834 -0.904110 5.865528 -5.359925 -16.139896 -1.873731 0.000000 0.000000 0.000000 -2.311230 -0.060805 1.792038 8.415240 -5.021074 2.027488 -9.094467 12.217673 4.839524 9.594616 -7.480309 -1.149912 0.000000 0.000000 0.000000 -15.211822 -3.793023 -6.973157 -42.725139 9.894749 -7.080614 -34.450464 -37.282559 8.422762 0.000000 0.000000 0.000000 18.697430 0.139855 6.571453 54.134600 8.299127 -1.992811 9.895886 34.130855 5.918596 0.000000 0.000000 0.000000 
0.038142 0.918662 -0.100156 -0.567207 42.611111 0.629096 12.703103 -1.479902 -6.838346 -3.722870 -0.085329 3.760097 -5.438513 -4.976982 5.939882 0.000000 0.000000 0.000000 -5.151141 -0.667557 1.489579 2.708075 -0.906725 5.538436 -5.742494 -17.250900 -1.478179 0.000000 0.000000 0.000000 -2.086369 -0.073595 2.247470 8.696420 -5.100533 1.632566 -9.223617 12.989480 4.914338 9.232256 -7.425370 -0.681280 0.000000 0.000000 0.000000 -14.810338 -4.307825 -6.938948 -44.049566 10.339323 -7.652251 -31.986985 -36.051925 7.220679 0.000000 0.000000 0.000000 19.141742 -0.238727 6.902807 54.583369 9.307348 -1.562551 8.695465 32.859189 5.249650 0.000000 0.000000 0.000000 
0.031871 0.919599 -0.103692 -0.176325 44.234839 1.035844 12.798278 -1.541023 -7.808047 -4.180706 -0.106157 4.021660 -5.944549 -4.781193 6.997366 0.000000 0.000000 0.000000 -5.394099 -0.711486 1.272055 3.127600 -1.051476 5.390786 -6.285212 -18.767390 -1.223134 0.000000 0.000000 0.000000 -1.944687 -0.080456 2.463388 9.333119 -5.378224 1.218778 -9.762135 13.402029 5.160604 9.739398 -7.856354 -0.757837 0.000000 0.000000 0.000000 -14.264166 -4.664714 -6.801002 -45.691917 10.497575 -8.269459 -30.972795 -35.403306 6.600651 0.000000 0.000000 0.000000 18.582048 0.280795 7.358097 55.656897 10.090245 -0.929139 6.569389 31.626100 4.315522 0.000000 0.000000 0.000000 
